<svg width="40" height="40" viewBox="0 0 40 40" fill="none" xmlns="http://www.w3.org/2000/svg">
<g clip-path="url(#clip0_260_768)">
<path d="M10.5 2C8.01797 2 6 4.01797 6 6.5V33.5C6 35.982 8.01797 38 10.5 38H28.5C30.982 38 33 35.982 33 33.5V13.25H24C22.7555 13.25 21.75 12.2445 21.75 11V2H10.5ZM24 2V11H33L24 2ZM10.5 7.625C10.5 7.00625 11.0062 6.5 11.625 6.5H16.125C16.7437 6.5 17.25 7.00625 17.25 7.625C17.25 8.24375 16.7437 8.75 16.125 8.75H11.625C11.0062 8.75 10.5 8.24375 10.5 7.625ZM10.5 12.125C10.5 11.5063 11.0062 11 11.625 11H16.125C16.7437 11 17.25 11.5063 17.25 12.125C17.25 12.7437 16.7437 13.25 16.125 13.25H11.625C11.0062 13.25 10.5 12.7437 10.5 12.125ZM19.5 17.1875C20.1187 17.1875 20.625 17.6938 20.625 18.3125V19.5289C21.2227 19.6133 21.7992 19.7469 22.3195 19.8875C22.9172 20.0492 23.2758 20.6609 23.1141 21.2656C22.9523 21.8703 22.3406 22.2219 21.7359 22.0602C20.9555 21.8492 20.1891 21.6945 19.4789 21.6875C18.8883 21.6805 18.2555 21.8141 17.8195 22.0742C17.4188 22.3133 17.25 22.5875 17.25 22.9742C17.25 23.2344 17.3414 23.4312 17.7633 23.6844C18.2484 23.9727 18.9305 24.1836 19.8164 24.4508L19.8516 24.4578C20.6461 24.6969 21.6305 24.9922 22.4039 25.4844C23.2547 26.0187 23.9789 26.8695 24 28.1703C24.0211 29.5273 23.325 30.5117 22.3898 31.0953C21.8484 31.4328 21.2367 31.6297 20.625 31.7352V32.9375C20.625 33.5562 20.1187 34.0625 19.5 34.0625C18.8813 34.0625 18.375 33.5562 18.375 32.9375V31.6859C17.5875 31.5383 16.8492 31.2852 16.2023 31.0602C16.0547 31.0109 15.907 30.9617 15.7664 30.9125C15.1758 30.7156 14.8594 30.0758 15.0563 29.4922C15.2531 28.9086 15.893 28.5852 16.4766 28.782C16.6523 28.8383 16.8141 28.8945 16.9758 28.9508C17.932 29.2742 18.7055 29.5414 19.5281 29.5625C20.168 29.5836 20.7867 29.443 21.1945 29.1898C21.5531 28.9648 21.75 28.6766 21.743 28.2055C21.7359 27.882 21.6164 27.657 21.2016 27.3898C20.7234 27.0875 20.0414 26.8695 19.1625 26.6023L19.05 26.5672C18.2766 26.3352 17.3414 26.0539 16.6031 25.6039C15.7594 25.0977 15.0141 24.275 15.007 22.9812C15 21.6172 15.7664 20.675 16.6805 20.1336C17.2078 19.8242 17.7914 19.6273 18.375 19.5219V18.3125C18.375 17.6938 18.8813 17.1875 19.5 17.1875Z" fill="#FF8A00"/>
</g>
<defs>
<clipPath id="clip0_260_768">
<rect width="27" height="36" fill="white" transform="translate(6 2)"/>
</clipPath>
</defs>
</svg>
