<svg width="40" height="40" viewBox="0 0 40 40" fill="none" xmlns="http://www.w3.org/2000/svg">
<path d="M34.3565 22.1807C32.4096 22.1807 30.5121 22.1748 28.6234 22.1857C28.2799 22.1839 27.9375 22.2227 27.6031 22.3014C26.4409 22.5914 25.9037 23.4641 25.674 24.5485C25.4017 25.7829 25.4179 27.0637 25.7213 28.2907C26.088 29.7482 27.0195 30.4735 28.512 30.4794C30.307 30.4873 32.1031 30.4794 33.8991 30.4794H34.3279C34.3388 30.5872 34.3555 30.6773 34.3555 30.7762C34.3555 31.8755 34.3624 32.9748 34.3555 34.0731C34.3516 34.8476 34.0434 35.5892 33.4977 36.1367C32.9521 36.6842 32.2132 36.9934 31.4416 36.997C22.9549 37.001 14.4686 37.001 5.98252 36.997C5.21086 36.9944 4.47157 36.6855 3.92601 36.1377C3.38045 35.5899 3.07294 34.8477 3.0706 34.0731C3.06468 28.9121 3.06468 23.7507 3.0706 18.589C3.07216 17.8143 3.37928 17.0718 3.9248 16.5239C4.47031 15.976 5.20981 15.6672 5.98154 15.6651C14.4689 15.6611 22.9556 15.6611 31.4416 15.6651C32.2132 15.6679 32.9524 15.9767 33.4982 16.5242C34.044 17.0717 34.3521 17.8135 34.3555 18.588C34.3565 19.7704 34.3565 20.9538 34.3565 22.1807Z" fill="#FF8A00"/>
<path d="M8.16992 14.4735L10.7723 12.1838C13.3156 9.94699 15.8588 7.71145 18.4021 5.47723C19.2212 4.75987 20.3016 4.8222 20.9315 5.66127C21.1665 5.98748 21.3093 6.37144 21.3445 6.77244C21.4066 7.55709 21.3731 8.35065 21.3544 9.14024C21.3468 9.21189 21.3233 9.28093 21.2858 9.34237C21.2483 9.40381 21.1977 9.4561 21.1375 9.49546C17.8937 11.1327 14.646 12.7617 11.3943 14.3824C11.3098 14.4315 11.2156 14.4612 11.1183 14.4695C10.174 14.4764 9.23059 14.4735 8.16992 14.4735Z" fill="#FF8A00"/>
<path d="M31.9464 29.2931C30.839 29.2931 29.7327 29.2931 28.6273 29.2931C27.4878 29.2931 27.0402 28.9547 26.8106 27.8366C26.5969 26.8063 26.6043 25.7421 26.8323 24.7148C27.0481 23.7392 27.5223 23.3701 28.5179 23.3691C30.8285 23.3691 33.1394 23.3691 35.4507 23.3691C36.5587 23.3691 37.301 24.1122 37.3039 25.2204C37.3039 25.9863 37.3039 26.7511 37.3039 27.516C37.3069 27.7509 37.2628 27.984 37.1743 28.2015C37.0858 28.4189 36.9547 28.6163 36.7887 28.782C36.6228 28.9476 36.4254 29.0781 36.2083 29.1658C35.9911 29.2534 35.7586 29.2964 35.5246 29.2921C34.3309 29.297 33.1381 29.2931 31.9464 29.2931ZM30.238 23.9608C29.7706 23.9566 29.3123 24.0914 28.9212 24.3484C28.53 24.6053 28.2234 24.9728 28.0401 25.4045C27.8569 25.8362 27.8051 26.3127 27.8914 26.7738C27.9777 27.235 28.1982 27.6602 28.525 27.9957C28.8518 28.3312 29.2704 28.562 29.7278 28.659C30.1852 28.7559 30.6609 28.7147 31.095 28.5404C31.529 28.3662 31.9019 28.0668 32.1666 27.68C32.4313 27.2933 32.5759 26.8364 32.5822 26.3672C32.5846 25.7375 32.3401 25.132 31.9015 24.6818C31.4628 24.2315 30.8653 23.9725 30.238 23.9608Z" fill="#FF8A00"/>
<path d="M32.5891 13.3041L30.2233 11.5231C32.0568 10.4564 32.8631 8.9089 32.5891 6.77363C32.1553 6.77363 31.7394 6.79441 31.3273 6.76275C31.1686 6.74988 30.9468 6.65489 30.8837 6.53022C30.8206 6.40555 30.864 6.15917 30.9547 6.03549C31.8241 4.82174 32.7067 3.62118 33.6024 2.43382C34.0115 1.88764 34.6542 1.86983 35.0653 2.41205C35.9788 3.61921 36.8784 4.83691 37.7643 6.06517C37.8085 6.13299 37.8368 6.20995 37.8472 6.2903C37.8577 6.37065 37.8499 6.45233 37.8244 6.52923C37.7643 6.64797 37.5622 6.7479 37.4153 6.75879C37.0023 6.78847 36.5853 6.76868 36.1477 6.76868C36.0422 9.54711 34.876 11.721 32.5891 13.3041Z" fill="#FF8A00"/>
<path d="M26.6676 14.4607H13.9021C14.0667 14.3617 14.1545 14.3103 14.2461 14.2628C17.4833 12.6411 20.7304 11.0381 23.9548 9.39164C25.1683 8.77223 26.3995 9.44606 26.6341 10.4801C26.6518 10.5391 26.6633 10.5997 26.6686 10.6611C26.6676 11.9187 26.6676 13.1744 26.6676 14.4607Z" fill="#FF8A00"/>
<path d="M29.0413 26.2999C29.047 26.0641 29.1225 25.8354 29.2582 25.6429C29.3939 25.4504 29.5837 25.3028 29.8033 25.2189C30.0229 25.1351 30.2624 25.1188 30.4912 25.1721C30.7201 25.2254 30.928 25.3459 31.0883 25.5182C31.2487 25.6906 31.3543 25.907 31.3917 26.1398C31.4291 26.3726 31.3966 26.6113 31.2983 26.8255C31.2 27.0397 31.0403 27.2197 30.8397 27.3425C30.6392 27.4652 30.4067 27.5253 30.172 27.5149C30.018 27.5105 29.8664 27.4754 29.726 27.4118C29.5857 27.3481 29.4592 27.2572 29.3541 27.1442C29.2489 27.0312 29.1671 26.8984 29.1135 26.7535C29.0598 26.6085 29.0352 26.4544 29.0413 26.2999Z" fill="#FF8A00"/>
</svg>
