<svg width="40" height="40" viewBox="0 0 40 40" fill="none" xmlns="http://www.w3.org/2000/svg">
<path d="M14.5481 3.40747H24.747C27.919 6.59374 31.0922 9.77884 34.2665 12.9628C34.341 13.0315 34.3996 13.1158 34.4382 13.2097C34.4769 13.3036 34.4946 13.4048 34.49 13.5063C34.4836 20.6362 34.4819 27.7662 34.4848 34.8962C34.4848 36.1839 33.6691 37.0001 32.3827 37.0001H18.362V33.7741H31.2648V27.6104H18.334V19.2176H14.5481V3.40747ZM23.0457 12.4947C23.0457 12.7629 23.0283 13.0127 23.051 13.26C23.0737 13.5072 22.9977 13.6106 22.7444 13.6842C22.1706 13.8524 21.6678 14.2054 21.3135 14.6887C20.9592 15.172 20.773 15.7589 20.7838 16.3589C20.8187 17.623 21.6292 18.6951 22.8527 18.9782C23.3636 19.0966 23.9103 19.0659 24.4413 19.0887C24.9444 19.108 25.3025 19.4104 25.3226 19.8636C25.3426 20.3169 24.9942 20.6701 24.4981 20.7026C24.1936 20.721 23.8882 20.721 23.5837 20.7026C23.175 20.6789 22.8894 20.4834 22.775 20.0653C22.7575 19.9986 22.6754 19.9013 22.6222 19.9005C22.0274 19.8882 21.4318 19.8926 20.8423 19.8926C20.7331 21.0848 21.541 22.0841 23.0606 22.6452V23.7147H25.0081C25.0081 23.4657 25.0265 23.236 25.0038 23.0134C24.9767 22.7372 25.0483 22.6031 25.3452 22.5137C25.9341 22.3368 26.4449 21.9627 26.7923 21.4536C27.1397 20.9446 27.3028 20.3315 27.2544 19.7164C27.1513 18.3865 26.2413 17.3679 24.9409 17.1776C24.5042 17.1128 24.0518 17.132 23.6064 17.1215C23.106 17.1101 22.7479 16.7928 22.7331 16.3387C22.7191 15.9065 23.0545 15.5497 23.5339 15.512C23.86 15.4923 24.1869 15.4923 24.513 15.512C24.8955 15.5322 25.1688 15.7128 25.2824 16.1046C25.3016 16.1713 25.3828 16.2677 25.4369 16.2686C26.0326 16.2808 26.6282 16.2765 27.2273 16.2765C27.2343 16.1958 27.2422 16.1537 27.2422 16.1116C27.2326 15.0308 26.3933 13.977 25.2614 13.6632C25.0605 13.6071 24.9994 13.5343 25.0073 13.3353C25.0221 13.0575 25.0073 12.7787 25.0073 12.4973L23.0457 12.4947ZM22.9698 6.64751H16.7253V8.56646H22.9698V6.64751ZM18.7777 12.7769V10.8483H16.728V12.7769H18.7777Z" fill="#088EFB"/>
<path d="M12.5866 3.40747V19.1965H9.38318V3.40747H12.5866Z" fill="#088EFB"/>
<path d="M32.9172 3.40737C33.0849 3.47838 33.2587 3.53799 33.4185 3.6239C34.0298 3.94913 34.4464 4.46284 34.4665 5.14661C34.5102 6.87007 34.4813 8.59529 34.4813 10.3696C34.3888 10.2951 34.3224 10.2504 34.2665 10.1943C32.0785 8.00093 29.8916 5.80613 27.7059 3.60987C27.6515 3.5463 27.6024 3.47827 27.5592 3.40649L32.9172 3.40737Z" fill="#088EFB"/>
<path d="M16.3551 36.9883H4.8269V25.4167H16.3551V36.9883ZM9.50804 28.1501H7.4941V30.0541H9.50804V28.1501ZM11.6731 28.1501V30.0471H13.6922V28.1501H11.6731ZM7.48974 32.3492V34.2462H9.50716V32.3483L7.48974 32.3492ZM13.6905 32.3492H11.6765V34.248H13.6905V32.3492Z" fill="#088EFB"/>
<path d="M16.369 21.2126V23.3928H4.83386V21.2126H16.369Z" fill="#088EFB"/>
<path d="M18.3567 31.7978V29.6062H29.2945V31.7978H18.3567Z" fill="#088EFB"/>
</svg>
