<svg width="40" height="40" viewBox="0 0 40 40" fill="none" xmlns="http://www.w3.org/2000/svg">
<path d="M6.12486 36.9943C5.51186 36.6207 5.51185 36.6207 5.38701 35.5731C5.25615 35.5731 5.12012 35.5731 4.98409 35.5731C4.41586 35.5602 3.99828 35.1427 4.00001 34.6004C4.00173 34.0581 4.40122 33.6613 4.95826 33.6398C5.09601 33.6346 5.23375 33.6398 5.41713 33.6398V33.2094C5.41713 23.8645 5.41713 14.5197 5.41713 5.1749C5.40914 5.03546 5.4155 4.89556 5.43609 4.75741C5.48846 4.53044 5.62021 4.32963 5.80759 4.19121C5.99497 4.05279 6.22565 3.98586 6.45804 4.00249C6.69575 4.02193 6.91791 4.12845 7.08189 4.30161C7.24587 4.47477 7.34013 4.70239 7.34655 4.94076C7.34655 5.04836 7.34655 5.15596 7.34655 5.26356V33.6372H7.76582C17.0992 33.6372 26.4331 33.6346 35.7675 33.6294C36.3504 33.6294 36.7619 33.8111 36.9935 34.3525V34.869C36.743 35.4139 36.316 35.5843 35.7262 35.5834C26.4107 35.5714 17.0949 35.5685 7.77875 35.5748H7.32847C7.4404 36.2394 7.24238 36.724 6.63971 36.996L6.12486 36.9943Z" fill="#00BB13"/>
<path d="M36.9952 10.1182C36.8644 10.8224 36.7341 11.5265 36.6043 12.2306C36.5854 12.3356 36.5647 12.4407 36.5458 12.5465C36.4425 13.125 36.0731 13.4702 35.5626 13.4642C35.0383 13.4573 34.6724 13.0888 34.5914 12.4432C34.3452 12.6421 34.1162 12.822 33.8923 13.0079C32.6256 14.0547 31.3603 15.102 30.0964 16.1498C29.5531 16.5983 29.1915 16.613 28.6181 16.2161C27.8071 15.6532 26.9918 15.0971 26.1859 14.5272C26.0275 14.4153 25.9208 14.4171 25.7615 14.5272C24.2626 15.5671 22.7481 16.588 21.2595 17.6373C20.7679 17.9816 20.3237 17.9997 19.7959 17.7096C18.0232 16.7292 16.2341 15.778 14.458 14.8053C14.3834 14.7576 14.2971 14.7313 14.2086 14.7294C14.1201 14.7274 14.0327 14.7498 13.9561 14.7941C12.8655 15.3157 11.7692 15.8285 10.6672 16.3323C10.4674 16.4295 10.2401 16.4547 10.0238 16.4038C9.80747 16.3528 9.61539 16.2287 9.47997 16.0526C9.34686 15.8819 9.27557 15.6712 9.27776 15.4548C9.27995 15.2384 9.35548 15.0292 9.49201 14.8612C9.59558 14.7389 9.72379 14.6398 9.86826 14.5703C11.1657 13.9557 12.4692 13.3531 13.7675 12.7411C14.142 12.5646 14.4847 12.6102 14.8394 12.8039C16.5992 13.7629 18.3693 14.708 20.1239 15.6721C20.3564 15.8004 20.5114 15.7926 20.7266 15.642C22.2402 14.5866 23.7641 13.5451 25.2854 12.5001C25.814 12.1368 26.136 12.1359 26.6689 12.5001C27.5342 13.0957 28.3969 13.6948 29.2742 14.3017L33.4412 10.8534C33.2929 10.827 33.1461 10.7931 33.0013 10.7518C32.7861 10.6781 32.6037 10.531 32.4861 10.3363C32.3685 10.1416 32.3232 9.91171 32.3581 9.68697C32.3883 9.47238 32.4922 9.27496 32.6519 9.12846C32.8116 8.98197 33.0173 8.8955 33.2337 8.88385C34.1678 8.85458 35.102 8.84339 36.0361 8.84253C36.5079 8.84253 36.7869 9.14725 36.9935 9.53117L36.9952 10.1182Z" fill="#00BB13"/>
<path d="M29.9889 21.9241L33.2605 19.3013C33.7624 18.8984 34.2669 18.4981 34.7672 18.0962C35.0883 17.8379 35.443 17.7691 35.8192 17.9352C36.2118 18.1073 36.3987 18.4405 36.3995 18.8605C36.3995 23.0917 36.3995 27.3222 36.3995 31.5521C36.3951 31.5928 36.3879 31.633 36.378 31.6727H9.29837C9.29321 31.5633 9.2846 31.4592 9.2846 31.3542C9.2846 28.4877 9.2846 25.6204 9.27771 22.7539C9.27771 22.5198 9.36381 22.4225 9.56097 22.3339C11.0309 21.6854 12.498 21.0298 13.9622 20.3669C14.1349 20.2816 14.326 20.2402 14.5186 20.2465C14.7111 20.2528 14.8992 20.3066 15.0659 20.4031C16.8662 21.3551 18.675 22.2882 20.4684 23.2523C20.7792 23.4245 20.985 23.3961 21.2656 23.2033C22.8085 22.1522 24.3711 21.1305 25.9148 20.0863C26.3754 19.7747 26.8007 19.7799 27.2536 20.0863C28.1585 20.7061 29.0694 21.3087 29.9889 21.9241Z" fill="#00BB13"/>
</svg>
