<svg width="40" height="40" viewBox="0 0 40 40" fill="none" xmlns="http://www.w3.org/2000/svg">
<g clip-path="url(#clip0_260_775)">
<path d="M10.1 5C11.2935 5 12.4381 5.4774 13.282 6.32717C14.1259 7.17695 14.6 8.32949 14.6 9.53125C14.6 10.733 14.1259 11.8856 13.282 12.7353C12.4381 13.5851 11.2935 14.0625 10.1 14.0625C8.90653 14.0625 7.76193 13.5851 6.91802 12.7353C6.07411 11.8856 5.6 10.733 5.6 9.53125C5.6 8.32949 6.07411 7.17695 6.91802 6.32717C7.76193 5.4774 8.90653 5 10.1 5ZM30.8 5C31.9935 5 33.1381 5.4774 33.982 6.32717C34.8259 7.17695 35.3 8.32949 35.3 9.53125C35.3 10.733 34.8259 11.8856 33.982 12.7353C33.1381 13.5851 31.9935 14.0625 30.8 14.0625C29.6065 14.0625 28.4619 13.5851 27.618 12.7353C26.7741 11.8856 26.3 10.733 26.3 9.53125C26.3 8.32949 26.7741 7.17695 27.618 6.32717C28.4619 5.4774 29.6065 5 30.8 5ZM2 21.9186C2 18.5824 4.68875 15.875 8.00187 15.875H10.4037C11.2981 15.875 12.1475 16.0732 12.9125 16.4244C12.8394 16.8322 12.8056 17.257 12.8056 17.6875C12.8056 19.8512 13.7506 21.7939 15.2412 23.125C15.23 23.125 15.2187 23.125 15.2019 23.125H3.19812C2.54 23.125 2 22.5813 2 21.9186ZM24.7981 23.125C24.7869 23.125 24.7756 23.125 24.7587 23.125C26.255 21.7939 27.1944 19.8512 27.1944 17.6875C27.1944 17.257 27.155 16.8379 27.0875 16.4244C27.8525 16.0676 28.7019 15.875 29.5963 15.875H31.9981C35.3112 15.875 38 18.5824 38 21.9186C38 22.5869 37.46 23.125 36.8019 23.125H24.7981ZM14.6 17.6875C14.6 16.2454 15.1689 14.8623 16.1816 13.8426C17.1943 12.8229 18.5678 12.25 20 12.25C21.4322 12.25 22.8057 12.8229 23.8184 13.8426C24.8311 14.8623 25.4 16.2454 25.4 17.6875C25.4 19.1296 24.8311 20.5127 23.8184 21.5324C22.8057 22.5521 21.4322 23.125 20 23.125C18.5678 23.125 17.1943 22.5521 16.1816 21.5324C15.1689 20.5127 14.6 19.1296 14.6 17.6875ZM9.2 32.4877C9.2 28.3189 12.5581 24.9375 16.6981 24.9375H23.3019C27.4419 24.9375 30.8 28.3189 30.8 32.4877C30.8 33.3203 30.1306 34 29.2981 34H10.7019C9.875 34 9.2 33.326 9.2 32.4877Z" fill="#FF1F64"/>
</g>
<defs>
<clipPath id="clip0_260_775">
<rect width="36" height="29" fill="white" transform="translate(2 5)"/>
</clipPath>
</defs>
</svg>
