<svg width="41" height="40" viewBox="0 0 41 40" fill="none" xmlns="http://www.w3.org/2000/svg">
<path fill-rule="evenodd" clip-rule="evenodd" d="M8.83301 11.875C5.38122 11.875 2.58301 14.6732 2.58301 18.125V28.125C2.58301 29.7358 3.88884 31.0417 5.49967 31.0417H12.1663V27.2917H28.833V31.0417H35.4997C37.1105 31.0417 38.4163 29.7358 38.4163 28.125V18.125C38.4163 14.6732 35.6182 11.875 32.1663 11.875H8.83301ZM31.333 17.2917C30.4125 17.2917 29.6663 18.0378 29.6663 18.9583C29.6663 19.8788 30.4125 20.625 31.333 20.625H31.348C32.2685 20.625 33.0147 19.8788 33.0147 18.9583C33.0147 18.0378 32.2685 17.2917 31.348 17.2917H31.333Z" fill="#30B0C7"/>
<path fill-rule="evenodd" clip-rule="evenodd" d="M10.917 5.625C10.917 3.55393 12.5959 1.875 14.667 1.875H26.3337C28.4047 1.875 30.0837 3.55393 30.0837 5.625V8.95833C30.0837 9.64868 29.524 10.2083 28.8337 10.2083H12.167C11.4766 10.2083 10.917 9.64868 10.917 8.95833V5.625Z" fill="#30B0C7"/>
<path fill-rule="evenodd" clip-rule="evenodd" d="M10.5 26.4582C10.5 25.5377 11.2462 24.7915 12.1667 24.7915H28.8333C29.7538 24.7915 30.5 25.5377 30.5 26.4582V33.1248C30.5 35.8863 28.2615 38.1248 25.5 38.1248H15.5C12.7386 38.1248 10.5 35.8863 10.5 33.1248V26.4582ZM13.8333 28.1248V33.1248C13.8333 34.0453 14.5795 34.7915 15.5 34.7915H25.5C26.4205 34.7915 27.1667 34.0453 27.1667 33.1248V28.1248H13.8333Z" fill="#30B0C7"/>
</svg>
