<svg width="40" height="40" viewBox="0 0 40 40" fill="none" xmlns="http://www.w3.org/2000/svg">
<g clip-path="url(#clip0_260_824)">
<path d="M21.1358 36.9999L3.01404 35.2431V19.5144C3.95376 19.4486 4.87459 19.3777 5.79542 19.3207C9.52658 19.0929 13.2577 18.8765 16.9877 18.6284C17.2935 18.5863 17.5776 18.446 17.7976 18.2284C18.7852 17.2792 19.7426 16.2983 20.7037 15.3174C20.8145 15.1821 20.912 15.0362 20.9947 14.882L21.1358 14.9845V36.9999ZM11.1352 34.1838C11.6315 34.1964 11.9918 33.918 12.0422 33.4826C12.0925 33.0472 12.3902 34.5188 11.8864 34.4226C11.7491 34.3961 10.442 35.0306 10.3022 35.0167C9.77184 34.9648 9.64309 34.2331 9.11402 34.1838C7.89717 34.0711 8.35316 34.119 7.13379 34.0266C7.03191 34.0128 6.04441 33.7999 5.94564 33.8286C5.84687 33.8572 4.87918 33.3969 4.80027 33.4631C4.72136 33.5293 4.60514 32.3499 4.55948 32.4424C4.55948 32.2444 4.80494 32.6845 4.80027 32.7877C4.78391 32.9867 4.84521 33.1844 4.9712 33.3388C5.09719 33.4933 5.27801 33.5925 5.47545 33.6155C7.36119 33.8142 9.2482 33.9964 11.1352 34.1838ZM5.62032 30.7514C4.95899 30.7298 4.7575 29.8681 4.80027 29.7393C4.76374 30.1759 5.06984 30.2664 5.62032 30.3335C6.45927 30.4335 7.30073 30.5196 8.13968 30.5803C8.65992 30.6183 8.99373 30.3272 9.03152 29.888C9.51007 30.6602 8.64667 31.122 8.12391 31.0562C7.29 30.9486 6.37613 30.8273 5.62032 30.7514Z" fill="#088EFB"/>
<path d="M22.7482 14.8528C23.7811 15.8982 24.7284 16.8425 25.6543 17.8056C25.7904 17.9557 25.955 18.0768 26.1385 18.1618C26.3219 18.2468 26.5205 18.294 26.7225 18.3005C29.466 18.4676 32.2084 18.6587 34.9519 18.846C35.7808 18.9017 36.6097 18.9726 37.4713 19.0334V24.9315C37.4713 28.0858 37.5052 34.8784 37.5052 34.8784L31.6708 35.9391L22.752 36.9834L22.7482 14.8528Z" fill="#088EFB"/>
<path d="M-0.193115 18.0817C0.735267 17.154 1.57044 16.3161 2.41064 15.4896C2.51279 15.3987 2.64129 15.3433 2.7772 15.3314C5.46451 15.1035 8.15562 14.8812 10.8505 14.6644C13.385 14.4568 15.9194 14.2458 18.4539 14.0315C18.8872 13.9948 19.3218 13.9682 19.8395 13.9315C19.7048 14.0859 19.6204 14.191 19.5271 14.2872C18.6945 15.1251 17.8694 15.9693 17.0216 16.792C16.8597 16.9543 16.6489 17.0584 16.422 17.0882C13.1305 17.3008 9.83896 17.4919 6.54742 17.6906C4.46308 17.8172 2.37831 17.9438 0.293119 18.0703C0.16967 18.0881 0.0512623 18.0817 -0.193115 18.0817Z" fill="#088EFB"/>
<path d="M40.1229 17.6198C39.3381 17.5742 38.6567 17.5388 37.9815 17.4932C34.9734 17.2857 31.9652 17.0747 28.9571 16.8604C28.3941 16.8211 27.8234 16.7617 27.2654 16.7541C27.1191 16.7576 26.9739 16.7294 26.8395 16.6712C26.7051 16.6131 26.5849 16.5265 26.4869 16.4174C25.7235 15.6301 24.94 14.8656 24.2195 13.9885C25.0546 14.067 25.8898 14.1417 26.7237 14.2252L33.9845 14.9542C35.2341 15.0808 36.4833 15.2074 37.7321 15.334C37.8238 15.3395 37.9117 15.3731 37.984 15.4301C38.6705 16.1339 39.3558 16.8376 40.1229 17.6198Z" fill="#088EFB"/>
<path d="M25.1605 10.5432C25.2864 10.0951 25.4514 9.53696 25.6114 8.97879C26.1842 6.96634 26.7577 4.95389 27.3322 2.94144C27.3498 2.88195 27.3674 2.8212 27.3876 2.76171C27.5639 2.24404 27.9355 2.00862 28.379 2.13519C28.8539 2.27062 29.068 2.67058 28.9168 3.22115C28.6158 4.31345 28.287 5.39941 27.9822 6.4879C27.5677 7.94092 27.1596 9.399 26.7376 10.8457C26.6015 11.3153 26.2262 11.5709 25.8331 11.5013C25.4401 11.4317 25.1454 11.0824 25.1605 10.5432Z" fill="#088EFB"/>
<path d="M15.0113 10.7292C15.0232 10.9276 14.9626 11.1236 14.8408 11.2802C14.719 11.4368 14.5445 11.5434 14.35 11.5797C13.9633 11.6569 13.5942 11.4367 13.4556 10.9963C13.1684 10.066 12.9038 9.12809 12.6343 8.19148C12.2009 6.68193 11.7706 5.17112 11.3431 3.65904C11.2732 3.46798 11.2411 3.26505 11.2486 3.06163C11.2605 2.87691 11.3405 2.70329 11.4731 2.57476C11.6057 2.44623 11.7812 2.37206 11.9654 2.36677C12.3912 2.33259 12.6809 2.56042 12.8031 2.97556C13.0962 3.98812 13.3871 5.00067 13.676 6.01323C14.0875 7.44768 14.499 8.88213 14.9105 10.3166C14.9534 10.4672 14.9861 10.6203 15.0113 10.7292Z" fill="#088EFB"/>
<path d="M31.1415 11.9051C30.3277 11.9152 29.975 11.3228 30.2458 10.6887C30.727 9.56226 31.2297 8.44592 31.7222 7.32452C32.0573 6.5651 32.3886 5.79809 32.7299 5.03868C32.9819 4.48177 33.3875 4.27926 33.8447 4.46152C34.302 4.64378 34.4444 5.11589 34.205 5.66267C33.3799 7.54855 32.5586 9.43569 31.7033 11.3064C31.5748 11.5823 31.2674 11.7747 31.1415 11.9051Z" fill="#088EFB"/>
<path d="M8.86141 11.905C8.74804 11.8012 8.44068 11.643 8.32857 11.3987C7.46569 9.50902 6.63682 7.60162 5.80921 5.70308C5.60892 5.24237 5.7752 4.82469 6.18712 4.62724C6.59903 4.42979 7.03488 4.57535 7.24273 5.03859C8.10435 6.96413 8.95252 8.89516 9.78727 10.8317C10.0165 11.3569 9.6084 11.9126 8.86141 11.905Z" fill="#088EFB"/>
<path d="M19.2047 7.4144C19.2047 6.56386 19.2047 5.71205 19.2047 4.86024C19.2047 4.27802 19.5032 3.954 19.9983 3.9578C20.4933 3.96159 20.7969 4.30966 20.7994 4.87036C20.807 6.55795 20.807 8.24554 20.7994 9.93313C20.7994 10.4774 20.448 10.8545 19.9894 10.852C19.5309 10.8495 19.2097 10.4824 19.2059 9.92174C19.1996 9.08638 19.2047 8.25102 19.2047 7.4144Z" fill="#088EFB"/>
</g>
<defs>
<clipPath id="clip0_260_824">
<rect width="40" height="40" fill="white"/>
</clipPath>
</defs>
</svg>
