<svg width="40" height="40" viewBox="0 0 40 40" fill="none" xmlns="http://www.w3.org/2000/svg">
<path d="M26.7484 2C26.9322 2.05542 27.116 2.10427 27.2998 2.16627C27.974 2.39205 28.5621 2.82808 28.9813 3.4131C29.4006 3.99812 29.6299 4.7027 29.6371 5.42781C29.6371 5.68332 29.6371 5.93978 29.6371 6.24789C30.0626 6.24789 30.4587 6.24789 30.8549 6.24789C31.7188 6.24789 32.08 6.56165 32.1416 7.43903C32.2335 8.78235 32.2997 10.1276 32.376 11.4727C32.444 12.6883 32.5111 13.9042 32.5772 15.1204C32.5846 15.2575 32.5772 15.3947 32.5772 15.5478H30.3503C30.319 14.9024 30.3099 14.2721 30.2538 13.6455C30.2042 13.0894 30.1803 12.5117 30.0093 11.9903C29.5902 10.7194 28.4184 9.94813 27.0195 9.94437C24.8872 9.93873 22.7549 9.94437 20.6226 9.94437H20.2118C20.2467 9.23889 20.2798 8.56441 20.3147 7.89088C20.3239 7.71521 20.3432 7.54049 20.3506 7.36482C20.38 6.6725 20.7724 6.2742 21.4654 6.25259C21.8891 6.23944 22.3128 6.2432 22.7365 6.2385C22.7619 6.23127 22.7861 6.22019 22.8082 6.20562C22.8321 5.80544 22.8248 5.39493 22.8854 4.99476C23.1189 3.4692 24.095 2.41709 25.5655 2.06857C25.6177 2.05042 25.6681 2.02747 25.7162 2H26.7484ZM27.559 6.23286C27.6114 5.45787 27.6426 4.72233 26.8853 4.28834C26.3881 4.00652 25.8881 4.04786 25.4359 4.39919C24.8247 4.86888 24.8845 5.54523 24.9313 6.23286H27.559Z" fill="#00BB13"/>
<path d="M13.1624 17.6783H32.8171C33.4982 17.6783 33.92 17.9949 33.9972 18.5933C34.0144 18.7785 33.995 18.9654 33.9403 19.1428C33.3346 21.31 32.7454 23.4837 32.0929 25.6349C31.9173 26.2117 31.5414 26.7284 31.2326 27.2544C31.1847 27.3145 31.1246 27.3634 31.0566 27.3977C30.9886 27.4321 30.9142 27.4511 30.8383 27.4536C25.8195 27.4636 20.8 27.4661 15.7799 27.4611C15.7128 27.4611 15.6457 27.4517 15.5621 27.4442L13.1624 17.6783Z" fill="#00BB13"/>
<path d="M17.1907 31.6917C19.0087 32.3352 19.9636 33.718 19.7017 35.2614C19.426 36.8696 18.1953 37.9856 16.6825 37.9978C15.12 38.0081 13.8462 36.9316 13.5741 35.33C13.3526 34.0411 13.9721 32.2864 16.018 31.7124C15.5777 31.6767 15.132 31.6889 14.7074 31.5997C13.1201 31.2662 12.042 30.2977 11.6256 28.6988C10.6064 24.7337 9.64224 20.7535 8.66065 16.779C8.23787 15.0693 7.82704 13.3559 7.40885 11.6453C7.23974 10.9492 6.92081 10.6852 6.21403 10.6805C5.18189 10.673 4.15067 10.6871 3.11853 10.6749C2.32536 10.6664 1.82353 10.006 2.0579 9.29493C2.20403 8.84966 2.52939 8.57067 2.97699 8.56691C4.26372 8.5547 5.55045 8.50585 6.82247 8.62609C8.11839 8.74915 8.99336 9.57487 9.32883 10.8543C10.0512 13.6067 10.7167 16.3751 11.3986 19.1387C12.1223 22.0727 12.8413 25.0074 13.5557 27.9426C13.8223 29.0239 14.5171 29.5678 15.62 29.5678H30.1012C30.6729 29.5678 31.0709 29.8393 31.2152 30.3193C31.2644 30.4731 31.2776 30.6366 31.2537 30.7967C31.2298 30.9567 31.1695 31.1087 31.0775 31.2405C30.9856 31.3723 30.8646 31.4802 30.7244 31.5555C30.5842 31.6308 30.4287 31.6713 30.2703 31.6739C29.5948 31.6936 28.9183 31.6739 28.2327 31.6992C29.047 31.9482 29.7299 32.3765 30.1986 33.1168C30.4263 33.4629 30.5822 33.853 30.6566 34.263C30.7311 34.6731 30.7225 35.0944 30.6315 35.5009C30.3089 37.0162 29.0507 38.0147 27.5259 37.9997C26.1197 37.9856 24.8688 36.9194 24.5683 35.4784C24.2282 33.8448 25.0407 32.5663 26.9956 31.6917H17.1907ZM28.6215 34.8471C28.6189 34.6438 28.5578 34.4459 28.4457 34.2779C28.3336 34.11 28.1755 33.9796 27.9913 33.9031C27.807 33.8265 27.6048 33.8072 27.4098 33.8476C27.2149 33.888 27.0359 33.9862 26.8954 34.13C26.7548 34.2738 26.6588 34.4568 26.6195 34.6561C26.5802 34.8554 26.5993 35.0621 26.6743 35.2503C26.7494 35.4386 26.8771 35.6 27.0415 35.7144C27.2059 35.8288 27.3997 35.8912 27.5985 35.8936C27.8698 35.8931 28.1299 35.7826 28.3217 35.5865C28.5134 35.3903 28.6212 35.1244 28.6215 34.8471ZM16.6301 35.8936C16.8341 35.8941 17.0336 35.8328 17.2034 35.7174C17.3733 35.6019 17.5058 35.4375 17.5841 35.245C17.6625 35.0526 17.6831 34.8406 17.6436 34.6361C17.604 34.4316 17.5059 34.2437 17.3617 34.0963C17.2175 33.9488 17.0338 33.8484 16.8337 33.8077C16.6337 33.7671 16.4263 33.788 16.2379 33.8679C16.0495 33.9478 15.8886 34.0831 15.7755 34.2566C15.6624 34.4301 15.6022 34.6339 15.6025 34.8424C15.6104 35.1185 15.7211 35.3811 15.9122 35.5765C16.1032 35.7719 16.36 35.8853 16.6301 35.8936Z" fill="#00BB13"/>
<path d="M16.2192 15.5384C16.2689 14.6479 16.2992 13.7818 16.3736 12.9194C16.4178 12.4093 16.8746 12.0599 17.4251 12.058C18.869 12.058 20.3138 12.058 21.7577 12.058H26.9855C27.7649 12.058 28.1592 12.46 28.1886 13.2623C28.2152 14.0138 28.2538 14.7587 28.2887 15.5393L16.2192 15.5384Z" fill="#00BB13"/>
<path d="M14.1725 15.5731C13.6927 15.5731 13.258 15.5872 12.8251 15.5619C12.7332 15.5562 12.6091 15.4172 12.5833 15.3167C12.1863 13.7686 11.8159 12.2167 11.4097 10.6677C11.2571 10.0862 11.0292 9.52537 10.8279 8.93262H18.2091C18.1907 9.24919 18.1714 9.57985 18.1512 9.91709C17.7211 9.94715 17.3093 9.94903 16.9058 10.011C16.1913 10.1202 15.5374 10.4835 15.0591 11.037C14.5808 11.5904 14.3088 12.2986 14.291 13.0368C14.2625 13.8625 14.2138 14.692 14.1725 15.5731Z" fill="#00BB13"/>
</svg>
