<svg width="40" height="40" viewBox="0 0 40 40" fill="none" xmlns="http://www.w3.org/2000/svg">
<g clip-path="url(#clip0_260_809)">
<path d="M11.5 2C9.01797 2 7 4.01797 7 6.5V33.5C7 35.982 9.01797 38 11.5 38H29.5C31.982 38 34 35.982 34 33.5V13.25H25C23.7555 13.25 22.75 12.2445 22.75 11V2H11.5ZM25 2V11H34L25 2ZM12.625 6.5H17.125C17.7437 6.5 18.25 7.00625 18.25 7.625C18.25 8.24375 17.7437 8.75 17.125 8.75H12.625C12.0062 8.75 11.5 8.24375 11.5 7.625C11.5 7.00625 12.0062 6.5 12.625 6.5ZM12.625 11H17.125C17.7437 11 18.25 11.5063 18.25 12.125C18.25 12.7437 17.7437 13.25 17.125 13.25H12.625C12.0062 13.25 11.5 12.7437 11.5 12.125C11.5 11.5063 12.0062 11 12.625 11ZM13.75 17.75H27.25C28.4945 17.75 29.5 18.7555 29.5 20V24.5C29.5 25.7445 28.4945 26.75 27.25 26.75H13.75C12.5055 26.75 11.5 25.7445 11.5 24.5V20C11.5 18.7555 12.5055 17.75 13.75 17.75ZM13.75 20V24.5H27.25V20H13.75ZM23.875 31.25H28.375C28.9937 31.25 29.5 31.7563 29.5 32.375C29.5 32.9937 28.9937 33.5 28.375 33.5H23.875C23.2563 33.5 22.75 32.9937 22.75 32.375C22.75 31.7563 23.2563 31.25 23.875 31.25Z" fill="#DA00FF"/>
</g>
<defs>
<clipPath id="clip0_260_809">
<rect width="27" height="36" fill="white" transform="translate(7 2)"/>
</clipPath>
</defs>
</svg>
