<svg width="44" height="44" viewBox="0 0 44 44" fill="none" xmlns="http://www.w3.org/2000/svg">
<path fill-rule="evenodd" clip-rule="evenodd" d="M9.21221 2C6.33359 2 4 4.33359 4 7.21221V29.9564C4 32.8351 6.33359 35.1686 9.21221 35.1686H24.2802C24.2808 33.9353 24.8558 32.8364 25.7523 32.1251C25.0577 31.0305 24.7541 29.7769 24.7541 28.5334C24.7541 25.888 26.3238 23.9298 27.969 22.8018C28.5999 22.3691 29.2902 22.0177 30.0167 21.7476C30.3165 19.9001 31.9194 18.4895 33.8517 18.4895C34.3534 18.4895 34.833 18.5846 35.2733 18.7578V7.21221C35.2733 4.33359 32.9397 2 30.061 2H9.21221ZM9.68605 11.0029C9.68605 10.2178 10.3225 9.5814 11.1076 9.5814H28.1657C28.9508 9.5814 29.5872 10.2178 29.5872 11.0029C29.5872 11.788 28.9508 12.4244 28.1657 12.4244H11.1076C10.3225 12.4244 9.68605 11.788 9.68605 11.0029ZM11.1076 17.1628C10.3225 17.1628 9.68605 17.7992 9.68605 18.5843C9.68605 19.3694 10.3225 20.0058 11.1076 20.0058H13.0029C13.788 20.0058 14.4244 19.3694 14.4244 18.5843C14.4244 17.7992 13.788 17.1628 13.0029 17.1628H11.1076ZM17.2674 18.5843C17.2674 17.7992 17.9039 17.1628 18.689 17.1628H20.5843C21.3694 17.1628 22.0058 17.7992 22.0058 18.5843C22.0058 19.3694 21.3694 20.0058 20.5843 20.0058H18.689C17.9039 20.0058 17.2674 19.3694 17.2674 18.5843ZM26.2703 17.1628C25.4853 17.1628 24.8488 17.7992 24.8488 18.5843C24.8488 19.3694 25.4853 20.0058 26.2703 20.0058H28.1657C28.9508 20.0058 29.5872 19.3694 29.5872 18.5843C29.5872 17.7992 28.9508 17.1628 28.1657 17.1628H26.2703ZM9.68605 26.1657C9.68605 25.3806 10.3225 24.7442 11.1076 24.7442H13.0029C13.788 24.7442 14.4244 25.3806 14.4244 26.1657C14.4244 26.9508 13.788 27.5872 13.0029 27.5872H11.1076C10.3225 27.5872 9.68605 26.9508 9.68605 26.1657ZM18.689 24.7442C17.9039 24.7442 17.2674 25.3806 17.2674 26.1657C17.2674 26.9508 17.9039 27.5872 18.689 27.5872H20.5843C21.3694 27.5872 22.0058 26.9508 22.0058 26.1657C22.0058 25.3806 21.3694 24.7442 20.5843 24.7442H18.689Z" fill="#01AAA3"/>
<path fill-rule="evenodd" clip-rule="evenodd" d="M33.8517 20.9534C34.6368 20.9534 35.2733 21.5898 35.2733 22.3749V23.6505C36.4216 23.8354 37.4789 24.2426 38.3413 24.8339C39.5435 25.6582 40.4855 26.9417 40.4855 28.5332C40.4855 29.3183 39.849 29.9548 39.064 29.9548C38.2789 29.9548 37.6424 29.3183 37.6424 28.5332C37.6424 28.151 37.4177 27.6477 36.7334 27.1786C36.0558 26.7141 35.0415 26.3809 33.8517 26.3809C32.662 26.3809 31.6476 26.7141 30.9701 27.1786C30.2858 27.6477 30.061 28.151 30.061 28.5332C30.061 29.1121 30.2292 29.3814 30.5785 29.6001C31.0633 29.9036 32.0368 30.175 33.8517 30.175C35.8172 30.175 37.5634 30.4288 38.853 31.2104C40.2847 32.0781 40.9593 33.4697 40.9593 35.1702C40.9593 37.0329 39.9783 38.3667 38.5653 39.1555C37.6114 39.6879 36.4671 39.9764 35.2733 40.0968V41.3284C35.2733 42.1134 34.6368 42.7499 33.8517 42.7499C33.0667 42.7499 32.4302 42.1134 32.4302 41.3284V40.0685C31.1744 39.8949 30.0167 39.4927 29.0747 38.9006C27.8048 38.1025 26.7442 36.8201 26.7442 35.1702C26.7442 34.3851 27.3806 33.7487 28.1657 33.7487C28.9508 33.7487 29.5872 34.3851 29.5872 35.1702C29.5872 35.4939 29.7995 35.9983 30.5876 36.4935C31.3565 36.9768 32.5068 37.3224 33.8517 37.3224C35.3051 37.3224 36.4503 37.0801 37.1796 36.673C37.8244 36.3131 38.1163 35.8601 38.1163 35.1702C38.1163 34.3179 37.8432 33.9227 37.3796 33.6418C36.7738 33.2747 35.677 33.018 33.8517 33.018C31.876 33.018 30.2434 32.7445 29.0698 32.0099C27.7607 31.1903 27.218 29.9282 27.218 28.5332C27.218 26.9417 28.16 25.6582 29.3622 24.8339C30.2246 24.2426 31.2818 23.8354 32.4302 23.6505V22.3749C32.4302 21.5898 33.0667 20.9534 33.8517 20.9534Z" fill="#01AAA3"/>
</svg>
