<svg width="40" height="40" viewBox="0 0 40 40" fill="none" xmlns="http://www.w3.org/2000/svg">
<path d="M13.0368 37.9993C12.4436 37.7364 12.2409 37.2766 12.2668 36.6366C12.3029 35.7142 12.2761 34.789 12.2761 33.8286H12.711C17.016 33.8286 21.321 33.8286 25.626 33.8286C27.1992 33.8286 28.4336 32.908 28.7909 31.446C28.8668 31.1077 28.9022 30.7616 28.8964 30.4149C28.9019 23.3367 28.9019 16.2586 28.8964 9.18044V8.729H30.5713C31.0211 8.729 31.4708 8.729 31.9215 8.729C32.6387 8.729 33.0486 9.14793 33.0496 9.87711C33.0496 12.53 33.0496 15.1829 33.0496 17.8358C33.0496 24.1034 33.0527 30.3706 33.0588 36.6375C33.0588 37.2738 32.8858 37.7392 32.2889 38.0002L13.0368 37.9993Z" fill="#FF1F64"/>
<path d="M6.03887 17.0704V3.62002C6.03887 2.78402 6.42291 2.40039 7.26873 2.40039H25.5853C26.445 2.40039 26.817 2.78031 26.817 3.65346V30.4845C26.817 31.3716 26.4468 31.7403 25.552 31.7403C19.4702 31.7403 13.3875 31.731 7.30483 31.7524C6.54784 31.7524 6.02128 31.313 6.02591 30.452C6.05645 25.9914 6.03887 21.5309 6.03887 17.0704ZM16.4265 11.8546H14.4193C13.0312 11.8546 11.6505 11.8481 10.2661 11.8546C9.45454 11.8602 8.93354 12.5978 9.24818 13.3009C9.46195 13.7784 9.86634 13.9437 10.3735 13.9437C14.4113 13.9388 18.4492 13.9388 22.487 13.9437C22.5676 13.9465 22.6482 13.9446 22.7285 13.9381C23.4837 13.8555 23.9158 13.0919 23.5771 12.4343C23.356 12.0051 22.9812 11.8537 22.5194 11.8537C20.4897 11.8562 18.4597 11.8565 16.4293 11.8546H16.4265ZM16.4265 16.0263H14.4887C13.0812 16.0263 11.6737 16.0198 10.2661 16.0263C9.45362 16.0309 8.93261 16.7694 9.24818 17.4707C9.46102 17.9491 9.86541 18.1154 10.3725 18.1144C14.411 18.1101 18.4489 18.1101 22.4861 18.1144C22.5669 18.1186 22.6478 18.1186 22.7285 18.1144C23.4828 18.0318 23.9158 17.2682 23.5771 16.6106C23.3569 16.1814 22.9821 16.0291 22.5194 16.0291C20.4903 16.0285 18.4606 16.0266 16.4302 16.0235L16.4265 16.0263ZM16.4265 20.1979H14.1824C12.8785 20.1979 11.5756 20.1905 10.2717 20.1979C9.4388 20.2044 8.93168 20.9671 9.27223 21.6749C9.48692 22.1217 9.86912 22.2851 10.3476 22.2851C14.4082 22.2851 18.4689 22.2851 22.5296 22.2851C22.5989 22.2889 22.6684 22.2889 22.7378 22.2851C23.5068 22.1978 23.9408 21.4027 23.5707 20.7469C23.3421 20.3428 22.9738 20.1989 22.525 20.1998C20.4903 20.2023 18.4578 20.2016 16.4275 20.1979H16.4265ZM13.2968 9.77114C14.3148 9.77114 15.3262 9.77114 16.3405 9.77114C16.9827 9.77114 17.4556 9.32899 17.4676 8.74471C17.4797 8.16044 16.9929 7.68763 16.3386 7.68578C14.3203 7.68113 12.3029 7.67835 10.2846 7.69228C10.0569 7.70047 9.83453 7.76424 9.63684 7.87806C9.45252 7.98864 9.31016 8.1577 9.23224 8.35855C9.15431 8.55939 9.14526 8.78057 9.20653 8.98715C9.34534 9.47668 9.72198 9.77021 10.255 9.77392C11.2683 9.77578 12.2826 9.77021 13.2977 9.77114H13.2968ZM20.6214 24.3696C19.9533 24.3696 19.2842 24.3696 18.6161 24.3696C17.9479 24.3696 17.4704 24.8182 17.4695 25.4118C17.4685 26.0054 17.9525 26.454 18.6142 26.4559C19.9283 26.4602 21.2423 26.4602 22.5564 26.4559C23.2181 26.4559 23.7012 26.0081 23.7021 25.4137C23.703 24.8192 23.2199 24.3752 22.5583 24.3696C21.9142 24.3659 21.2683 24.3696 20.6223 24.3696H20.6214Z" fill="#FF1F64"/>
</svg>
