<svg width="40" height="40" viewBox="0 0 40 40" fill="none" xmlns="http://www.w3.org/2000/svg">
<g clip-path="url(#clip0_260_761)">
<path d="M2.9 5C1.84906 5 1 5.83789 1 6.875C1 7.91211 1.84906 8.75 2.9 8.75H3.85C4.3725 8.75 4.8 9.17188 4.8 9.6875V26.5625C4.8 29.1523 6.92562 31.25 9.55 31.25H10.6603C10.5534 31.543 10.5 31.8594 10.5 32.1875C10.5 33.7402 11.7766 35 13.35 35C14.9234 35 16.2 33.7402 16.2 32.1875C16.2 31.8594 16.1406 31.543 16.0397 31.25H27.7603C27.6534 31.543 27.6 31.8594 27.6 32.1875C27.6 33.7402 28.8766 35 30.45 35C32.0234 35 33.3 33.7402 33.3 32.1875C33.3 31.8594 33.2406 31.543 33.1397 31.25H37.1C38.1509 31.25 39 30.4121 39 29.375C39 28.3379 38.1509 27.5 37.1 27.5H9.55C9.0275 27.5 8.6 27.0781 8.6 26.5625V9.6875C8.6 7.09766 6.47437 5 3.85 5H2.9ZM12.4 9.6875V20.9375C12.4 22.4902 13.6766 23.75 15.25 23.75H34.25C35.8234 23.75 37.1 22.4902 37.1 20.9375V9.6875C37.1 8.13477 35.8234 6.875 34.25 6.875H28.55V15.3125C28.55 15.6582 28.36 15.9746 28.0453 16.1387C27.7306 16.3027 27.3625 16.2852 27.0716 16.0918L24.75 14.5625L22.4284 16.0918C22.1375 16.2852 21.7634 16.3027 21.4547 16.1387C21.1459 15.9746 20.95 15.6582 20.95 15.3125V6.875H15.25C13.6766 6.875 12.4 8.13477 12.4 9.6875Z" fill="#8424FF"/>
</g>
<defs>
<clipPath id="clip0_260_761">
<rect width="38" height="30" fill="white" transform="translate(1 5)"/>
</clipPath>
</defs>
</svg>
