<svg width="40" height="40" viewBox="0 0 40 40" fill="none" xmlns="http://www.w3.org/2000/svg">
<g clip-path="url(#clip0_260_839)">
<path d="M20 1C16.9521 1 14.3562 2.92949 13.401 5.625H10.6667C8.09271 5.625 6 7.69902 6 10.25V33.375C6 35.926 8.09271 38 10.6667 38H29.3333C31.9073 38 34 35.926 34 33.375V10.25C34 7.69902 31.9073 5.625 29.3333 5.625H26.599C25.6437 2.92949 23.0479 1 20 1ZM20 5.625C20.6188 5.625 21.2123 5.86864 21.6499 6.30232C22.0875 6.73599 22.3333 7.32419 22.3333 7.9375C22.3333 8.55081 22.0875 9.13901 21.6499 9.57268C21.2123 10.0064 20.6188 10.25 20 10.25C19.3812 10.25 18.7877 10.0064 18.3501 9.57268C17.9125 9.13901 17.6667 8.55081 17.6667 7.9375C17.6667 7.32419 17.9125 6.73599 18.3501 6.30232C18.7877 5.86864 19.3812 5.625 20 5.625ZM11.25 20.6562C11.25 20.1963 11.4344 19.7551 11.7626 19.4299C12.0908 19.1046 12.5359 18.9219 13 18.9219C13.4641 18.9219 13.9092 19.1046 14.2374 19.4299C14.5656 19.7551 14.75 20.1963 14.75 20.6562C14.75 21.1162 14.5656 21.5574 14.2374 21.8826C13.9092 22.2079 13.4641 22.3906 13 22.3906C12.5359 22.3906 12.0908 22.2079 11.7626 21.8826C11.4344 21.5574 11.25 21.1162 11.25 20.6562ZM18.8333 19.5H28.1667C28.8083 19.5 29.3333 20.0203 29.3333 20.6562C29.3333 21.2922 28.8083 21.8125 28.1667 21.8125H18.8333C18.1917 21.8125 17.6667 21.2922 17.6667 20.6562C17.6667 20.0203 18.1917 19.5 18.8333 19.5ZM11.25 27.5938C11.25 27.1338 11.4344 26.6926 11.7626 26.3674C12.0908 26.0421 12.5359 25.8594 13 25.8594C13.4641 25.8594 13.9092 26.0421 14.2374 26.3674C14.5656 26.6926 14.75 27.1338 14.75 27.5938C14.75 28.0537 14.5656 28.4949 14.2374 28.8201C13.9092 29.1454 13.4641 29.3281 13 29.3281C12.5359 29.3281 12.0908 29.1454 11.7626 28.8201C11.4344 28.4949 11.25 28.0537 11.25 27.5938ZM17.6667 27.5938C17.6667 26.9578 18.1917 26.4375 18.8333 26.4375H28.1667C28.8083 26.4375 29.3333 26.9578 29.3333 27.5938C29.3333 28.2297 28.8083 28.75 28.1667 28.75H18.8333C18.1917 28.75 17.6667 28.2297 17.6667 27.5938Z" fill="#7E18FF"/>
</g>
<defs>
<clipPath id="clip0_260_839">
<rect width="28" height="37" fill="white" transform="translate(6 1)"/>
</clipPath>
</defs>
</svg>
