<svg width="34" height="34" viewBox="0 0 34 34" fill="none" xmlns="http://www.w3.org/2000/svg">
<path d="M1.50243 10.5391C1.44151 10.5391 1.38307 10.5149 1.33999 10.4718C1.29691 10.4287 1.27271 10.3703 1.27271 10.3094V6.66723C1.27271 6.6063 1.29691 6.54787 1.33999 6.50479C1.38307 6.4617 1.44151 6.4375 1.50243 6.4375H5.14595C5.20688 6.4375 5.26531 6.4617 5.30839 6.50479C5.35148 6.54787 5.37568 6.6063 5.37568 6.66723C5.37568 6.72816 5.35148 6.78659 5.30839 6.82967C5.26531 6.87276 5.20688 6.89696 5.14595 6.89696H1.73216V10.3094C1.73216 10.3703 1.70796 10.4287 1.66488 10.4718C1.6218 10.5149 1.56336 10.5391 1.50243 10.5391Z" fill="#8424FF"/>
<path d="M32.7457 10.5391C32.6847 10.5391 32.6263 10.5149 32.5832 10.4718C32.5401 10.4287 32.5159 10.3703 32.5159 10.3094V6.89696H29.1035C29.0426 6.89696 28.9841 6.87276 28.9411 6.82967C28.898 6.78659 28.8738 6.72816 28.8738 6.66723C28.8738 6.6063 28.898 6.54787 28.9411 6.50479C28.9841 6.4617 29.0426 6.4375 29.1035 6.4375H32.7457C32.8066 6.4375 32.865 6.4617 32.9081 6.50479C32.9512 6.54787 32.9754 6.6063 32.9754 6.66723V10.3094C32.9754 10.3703 32.9512 10.4287 32.9081 10.4718C32.865 10.5149 32.8066 10.5391 32.7457 10.5391Z" fill="#8424FF"/>
<path d="M5.14595 27.5625H1.50243C1.44151 27.5625 1.38307 27.5383 1.33999 27.4952C1.29691 27.4522 1.27271 27.3937 1.27271 27.3328V23.6907C1.27271 23.6297 1.29691 23.5713 1.33999 23.5282C1.38307 23.4851 1.44151 23.4609 1.50243 23.4609C1.56336 23.4609 1.6218 23.4851 1.66488 23.5282C1.70796 23.5713 1.73216 23.6297 1.73216 23.6907V27.1031H5.14595C5.20688 27.1031 5.26531 27.1273 5.30839 27.1704C5.35148 27.2134 5.37568 27.2719 5.37568 27.3328C5.37568 27.3937 5.35148 27.4522 5.30839 27.4952C5.26531 27.5383 5.20688 27.5625 5.14595 27.5625Z" fill="#8424FF"/>
<path d="M32.7457 27.5625H29.1035C29.0426 27.5625 28.9841 27.5383 28.9411 27.4952C28.898 27.4522 28.8738 27.3937 28.8738 27.3328C28.8738 27.2719 28.898 27.2134 28.9411 27.1704C28.9841 27.1273 29.0426 27.1031 29.1035 27.1031H32.5159V23.6907C32.5159 23.6297 32.5401 23.5713 32.5832 23.5282C32.6263 23.4851 32.6847 23.4609 32.7457 23.4609C32.8066 23.4609 32.865 23.4851 32.9081 23.5282C32.9512 23.5713 32.9754 23.6297 32.9754 23.6907V27.3328C32.9754 27.3937 32.9512 27.4522 32.9081 27.4952C32.865 27.5383 32.8066 27.5625 32.7457 27.5625Z" fill="#8424FF"/>
<path d="M8.44751 8.948H9.52954V25.0525H8.44751V8.948Z" fill="#8424FF"/>
<path d="M6.85278 8.948H7.638V25.0525H6.85278V8.948Z" fill="#8424FF"/>
<path d="M15.6396 8.948H16.9707V25.0525H15.6396V8.948Z" fill="#8424FF"/>
<path d="M12.6345 8.948H13.2281V25.0525H12.6345V8.948Z" fill="#8424FF"/>
<path d="M13.8694 8.948H14.7497V25.0525H13.8694V8.948Z" fill="#8424FF"/>
<path d="M4.27783 8.948H5.77107V25.0525H4.27783V8.948Z" fill="#8424FF"/>
<path d="M10.3887 8.948H11.8603V25.0525H10.3887V8.948Z" fill="#8424FF"/>
<path d="M26.5469 25.052H25.4649V8.94748H26.5469V25.052Z" fill="#8424FF"/>
<path d="M28.1582 25.052H27.373V8.94748H28.1582V25.052Z" fill="#8424FF"/>
<path d="M22.2292 25.052H21.6356V8.94748H22.2292V25.052Z" fill="#8424FF"/>
<path d="M18.7322 25.052H18.0044V8.94748H18.7322V25.052Z" fill="#8424FF"/>
<path d="M20.7803 25.052H19.9V8.94748H20.7803V25.052Z" fill="#8424FF"/>
<path d="M30.3713 25.052H29.1032V8.94748H30.3713V25.052Z" fill="#8424FF"/>
<path d="M24.4761 25.052H23.0044V8.94748H24.4761V25.052Z" fill="#8424FF"/>
<path d="M32.5093 16.2534V17.7466H1.73836V16.2534H32.5093Z" fill="#FE7058"/>
</svg>
