<svg width="40" height="40" viewBox="0 0 40 40" fill="none" xmlns="http://www.w3.org/2000/svg">
<g clip-path="url(#clip0_260_782)">
<path d="M17.0694 4H14.6389C13.0286 4 11.7222 5.38574 11.7222 7.09375V14.3125C11.7222 16.5877 13.4661 18.4375 15.6111 18.4375H23.3889C25.5339 18.4375 27.2778 16.5877 27.2778 14.3125V7.09375C27.2778 5.38574 25.9714 4 24.3611 4H21.9306V9.15625C21.9306 9.72344 21.4931 10.1875 20.9583 10.1875H18.0417C17.5069 10.1875 17.0694 9.72344 17.0694 9.15625V4ZM5.88889 20.5C3.74392 20.5 2 22.3498 2 24.625V32.875C2 35.1502 3.74392 37 5.88889 37H15.6111C17.7561 37 19.5 35.1502 19.5 32.875V24.625C19.5 22.3498 17.7561 20.5 15.6111 20.5H13.1806V25.6562C13.1806 26.2234 12.7431 26.6875 12.2083 26.6875H9.29167C8.75694 26.6875 8.31944 26.2234 8.31944 25.6562V20.5H5.88889ZM23.3889 37H33.1111C35.2561 37 37 35.1502 37 32.875V24.625C37 22.3498 35.2561 20.5 33.1111 20.5H30.6806V25.6562C30.6806 26.2234 30.2431 26.6875 29.7083 26.6875H26.7917C26.2569 26.6875 25.8194 26.2234 25.8194 25.6562V20.5H23.3889C22.4774 20.5 21.6389 20.8287 20.9766 21.3895C21.2743 22.0598 21.4444 22.8074 21.4444 23.5938V33.9062C21.4444 34.6926 21.2743 35.4402 20.9766 36.1105C21.6389 36.6713 22.4774 37 23.3889 37Z" fill="#00C796"/>
</g>
<defs>
<clipPath id="clip0_260_782">
<rect width="35" height="33" fill="white" transform="translate(2 4)"/>
</clipPath>
</defs>
</svg>
